<?xml version="1.0" standalone="no"?>
<!DOCTYPE svg PUBLIC "-//W3C//DTD SVG 20010904//EN"
 "http://www.w3.org/TR/2001/REC-SVG-20010904/DTD/svg10.dtd">
<svg version="1.0" xmlns="http://www.w3.org/2000/svg"
 width="570.000000pt" height="570.000000pt" viewBox="0 0 570.000000 570.000000"
 preserveAspectRatio="xMidYMid meet">

<g transform="translate(0.000000,570.000000) scale(0.100000,-0.100000)"
fill="#000000" stroke="none">
<path d="M2666 4010 c-140 -22 -447 -106 -626 -172 -47 -17 -184 -71 -305
-121 -427 -175 -497 -197 -843 -262 -133 -25 -253 -51 -267 -57 -13 -6 -28
-22 -34 -37 -11 -26 -14 -945 -4 -1004 2 -15 13 -32 23 -37 10 -5 109 -26 220
-45 396 -69 531 -108 851 -248 240 -105 351 -150 551 -221 288 -102 451 -132
663 -123 267 13 501 82 1015 299 265 113 648 244 820 282 63 14 158 28 210 31
159 10 158 10 171 58 13 46 7 987 -6 1019 -8 20 -31 27 -210 58 -170 29 -541
128 -697 184 -68 25 -211 84 -318 131 -314 139 -521 207 -756 250 -106 19
-375 28 -458 15z m552 -119 c140 -30 244 -67 385 -137 218 -109 228 -119 242
-229 12 -99 28 -116 154 -167 45 -18 99 -46 118 -63 32 -28 36 -39 59 -150 30
-145 42 -373 26 -490 -29 -206 -68 -256 -243 -305 -103 -28 -113 -41 -114
-143 -1 -45 -6 -91 -12 -102 -32 -58 -104 -92 -413 -197 -337 -114 -649 -127
-953 -42 -104 29 -475 173 -525 204 -41 25 -52 54 -50 135 2 59 0 67 -26 94
-18 19 -60 41 -114 61 -47 17 -98 38 -114 48 -39 23 -75 101 -89 192 -16 102
-6 502 14 591 24 106 37 119 168 162 96 32 148 63 153 91 3 11 8 50 11 86 9
94 23 111 134 164 223 105 485 188 686 215 111 16 394 5 503 -18z m-1860 -561
c18 -11 41 -34 52 -52 19 -31 20 -51 20 -416 0 -419 1 -415 -60 -465 -50 -42
-99 -43 -324 -7 -110 18 -213 39 -229 47 -15 7 -41 32 -57 55 l-30 41 0 315 0
315 24 42 c14 22 39 49 58 58 38 20 388 85 463 86 34 1 61 -6 83 -19z m3372
-51 c181 -32 186 -33 221 -69 21 -19 42 -53 48 -75 7 -25 11 -147 11 -323 0
-312 -2 -322 -62 -380 -34 -32 -42 -34 -239 -67 -112 -19 -220 -35 -239 -35
-49 0 -120 38 -147 79 -23 34 -23 36 -23 421 0 385 0 387 23 420 55 81 100 84
407 29z"/>
<path d="M1986 3623 c-5 -22 -16 -35 -37 -43 -30 -13 -30 -13 -8 -28 16 -11
20 -21 15 -44 l-6 -29 30 21 c16 12 40 20 52 18 19 -2 22 1 20 19 -2 13 4 33
12 45 22 31 20 39 -9 32 -19 -5 -30 0 -44 17 l-19 23 -6 -31z"/>
<path d="M3664 3619 c-3 -6 -19 -9 -35 -5 -34 7 -37 -4 -8 -30 13 -12 19 -27
16 -41 -3 -18 0 -23 18 -23 12 0 30 -9 40 -20 25 -27 35 -25 35 7 0 14 7 34
16 44 15 16 14 19 -14 33 -16 8 -32 22 -35 31 -7 18 -23 20 -33 4z"/>
<path d="M2688 3589 c-227 -19 -514 -93 -665 -173 -271 -143 -416 -371 -399
-627 21 -321 259 -548 686 -653 207 -52 445 -72 663 -56 422 31 739 149 939
351 111 112 162 245 162 419 -1 141 -38 251 -126 368 -197 264 -715 416 -1260
371z m202 -80 c8 -14 4 -18 -15 -23 -22 -6 -24 -9 -15 -27 19 -34 55 -45 85
-25 19 12 24 23 20 37 -4 13 -1 21 10 25 25 10 39 -10 24 -34 -11 -18 -10 -24
5 -41 21 -23 47 -27 77 -11 18 10 18 12 4 27 -9 9 -13 19 -8 23 11 10 75 31
80 26 8 -8 -82 -135 -99 -139 -12 -4 -15 -11 -11 -28 5 -19 3 -21 -13 -15 -43
17 -153 36 -209 35 -33 0 -91 -8 -130 -18 -73 -19 -94 -18 -75 4 7 9 6 16 -3
24 -8 6 -16 8 -19 5 -5 -4 -53 70 -86 130 -4 8 17 3 67 -16 19 -7 21 -11 11
-23 -10 -12 -10 -18 0 -30 18 -21 54 -19 76 6 15 16 16 24 6 39 -18 29 -15 42
11 38 16 -2 22 -10 22 -28 0 -17 8 -29 28 -38 24 -12 31 -11 53 2 27 18 32 44
9 52 -21 9 -19 20 12 59 l28 35 22 -28 c13 -15 28 -34 33 -43z m667 -111 c32
-31 58 -87 51 -109 -6 -18 -96 51 -127 98 -17 26 -31 52 -31 60 0 20 67 -11
107 -49z m-1337 44 c0 -4 -13 -29 -29 -54 -28 -45 -78 -89 -115 -102 -16 -6
-18 -3 -12 26 4 18 19 48 34 67 38 47 122 90 122 63z m204 -27 c-2 -19 -91
-56 -149 -62 -57 -6 -57 -6 -45 16 18 34 86 61 145 59 28 -2 49 -7 49 -13z
m969 4 c29 -15 67 -50 67 -62 0 -17 -102 2 -157 29 -29 14 -53 30 -53 35 0 13
117 11 143 -2z m298 -96 c37 -39 49 -66 49 -109 0 -31 -2 -35 -15 -24 -13 11
-14 10 -9 -5 7 -17 2 -18 -53 -13 -74 7 -162 43 -145 60 15 15 112 14 142 -2
l25 -13 -18 24 c-26 35 -57 101 -57 122 0 16 2 16 28 3 15 -8 39 -27 53 -43z
m-1635 20 c-4 -16 -20 -49 -36 -75 l-29 -47 25 10 c28 10 104 12 128 3 28 -11
18 -22 -39 -43 -58 -22 -155 -29 -155 -11 0 6 -5 9 -12 8 -16 -4 -11 57 7 92
20 37 82 89 109 90 4 0 5 -12 2 -27z m217 -34 c20 -5 37 -14 37 -19 0 -19
-109 -42 -161 -35 -57 8 -60 21 -8 47 39 20 78 22 132 7z m1284 -10 c26 -16
31 -24 21 -30 -31 -20 -208 -2 -208 22 0 13 53 27 104 28 33 1 60 -6 83 -20z
m-280 -49 c126 -34 230 -89 305 -159 150 -140 181 -266 91 -370 -44 -52 -221
-172 -320 -218 -269 -124 -807 -118 -1063 12 -97 50 -257 191 -291 257 -25 49
-25 130 1 186 24 53 109 139 188 190 69 44 206 93 334 118 l87 17 63 -29 c56
-26 74 -29 163 -29 91 0 106 3 164 30 60 28 70 30 133 24 37 -5 103 -17 145
-29z m-1371 -65 c-4 -17 -20 -53 -37 -80 -34 -54 -49 -49 -49 18 0 48 22 100
57 134 l28 28 3 -34 c2 -19 1 -49 -2 -66z m1892 72 c44 -46 66 -141 42 -177
-9 -13 -13 -12 -26 5 -31 39 -54 101 -54 148 0 53 7 57 38 24z m-1772 -136
c-39 -41 -176 -98 -176 -73 0 20 45 65 84 83 23 10 59 19 80 19 l40 0 -28 -29z
m1707 15 c35 -14 90 -72 82 -86 -3 -4 -15 -6 -28 -3 -21 4 -21 4 -2 -8 11 -7
32 -20 46 -30 l26 -19 1 47 c1 50 19 113 32 113 12 0 40 -76 40 -108 -1 -35
-35 -111 -54 -118 -22 -8 -88 30 -129 75 -44 49 -47 63 -9 56 17 -4 9 3 -24
19 -28 14 -61 37 -74 51 l-23 25 42 0 c23 0 56 -6 74 -14z m-1934 -27 c6 -18
11 -55 11 -82 l0 -51 28 26 c29 29 71 48 103 48 20 0 20 -1 2 -31 -19 -33
-104 -95 -138 -101 -15 -2 -26 8 -42 42 -27 51 -29 96 -9 145 18 43 31 44 45
4z m2191 -162 c-1 -74 -64 -177 -109 -177 -19 0 -82 62 -101 99 -18 35 -30 81
-21 81 20 0 89 -61 103 -90 l16 -32 16 49 c18 53 72 127 87 118 5 -4 9 -25 9
-48z m-2263 10 c26 -30 39 -54 58 -111 5 -17 9 -15 29 18 21 34 69 76 90 76
16 0 -4 -61 -34 -105 -17 -25 -44 -52 -60 -60 -27 -14 -30 -13 -61 12 -17 15
-40 45 -50 68 -19 41 -26 135 -10 135 5 0 22 -15 38 -33z m183 -192 c0 -87
-23 -145 -58 -145 -33 0 -106 43 -130 78 -22 30 -47 101 -39 108 14 15 97 -51
142 -111 14 -19 14 -19 15 8 0 46 39 127 61 127 5 0 9 -29 9 -65z m1893 33
c13 -18 20 -44 21 -78 1 -49 2 -50 16 -28 41 63 128 133 144 117 12 -11 -17
-82 -47 -116 -40 -46 -109 -78 -136 -64 -27 15 -41 63 -41 138 0 70 9 77 43
31z m-1833 -128 c24 -46 38 -150 21 -150 -16 0 -50 37 -61 66 -11 28 -13 94
-4 118 8 22 21 12 44 -34z m1774 34 c10 -26 7 -94 -5 -117 -15 -29 -50 -67
-62 -67 -16 0 0 107 23 155 23 48 34 55 44 29z m161 -119 c-33 -44 -91 -74
-157 -82 -48 -6 -50 -5 -40 14 13 23 62 63 109 87 41 21 107 35 111 24 2 -5
-8 -24 -23 -43z m-2060 16 c33 -16 76 -45 94 -65 l35 -36 -45 0 c-24 0 -62 9
-84 19 -39 17 -105 81 -105 101 0 18 45 10 105 -19z m236 -39 c16 -25 29 -38
29 -29 0 9 3 17 8 17 12 0 53 -29 90 -63 25 -24 32 -27 32 -14 0 16 4 15 43
-4 23 -12 57 -32 74 -46 22 -16 31 -19 27 -8 -13 32 72 6 134 -42 30 -22 33
-23 23 -5 -17 31 -14 33 27 26 81 -14 214 -97 197 -123 -11 -19 -91 -5 -145
25 -30 17 -39 19 -28 8 16 -16 16 -19 -4 -47 -21 -29 -21 -30 -2 -23 30 12
129 19 159 12 22 -6 25 -9 15 -21 -41 -50 -145 -79 -227 -64 -51 10 -63 17
-46 27 6 4 -19 7 -55 7 -67 0 -136 20 -126 36 3 5 -10 9 -29 9 -44 0 -116 25
-138 49 -9 10 -34 21 -56 24 -42 7 -103 41 -103 57 0 5 12 10 28 10 35 1 12
15 -39 24 -39 7 -119 59 -119 77 0 8 21 10 63 7 99 -6 241 -85 160 -89 -15 -1
1 -5 37 -9 36 -4 76 -10 90 -15 l25 -7 -27 21 c-15 12 -37 34 -49 49 -20 25
-22 25 -16 5 7 -30 -8 -29 -50 3 -43 32 -73 92 -73 144 0 38 1 40 21 30 11 -6
34 -32 50 -58z m1579 31 c0 -52 -36 -119 -78 -148 -45 -31 -55 -31 -47 -2 5
19 3 18 -16 -7 -12 -15 -36 -37 -53 -48 -17 -11 -22 -17 -11 -12 53 20 235 16
235 -6 0 -15 -103 -60 -137 -60 -21 0 -32 -5 -30 -12 3 -19 -65 -49 -116 -51
-27 -1 -43 -6 -40 -13 6 -18 -81 -37 -146 -32 -47 3 -56 2 -44 -8 14 -10 11
-13 -22 -24 -58 -19 -148 -7 -203 27 -75 46 -68 56 34 51 49 -3 98 -8 109 -13
l20 -8 -20 16 c-17 14 -18 18 -5 27 12 8 10 10 -9 10 -20 0 -22 3 -13 12 19
19 14 33 -5 16 -31 -25 -73 -38 -125 -38 l-52 0 33 34 c39 40 123 83 182 92
l43 7 -18 -28 -18 -27 46 31 c37 26 114 61 133 61 2 0 1 -10 -3 -22 -6 -21 -5
-20 26 5 31 26 101 67 116 67 3 0 3 -7 0 -15 -3 -9 16 2 42 23 26 22 57 45 70
51 19 10 22 9 22 -6 0 -14 3 -12 17 7 23 35 65 80 75 80 4 0 8 -17 8 -37z
m140 -128 c-36 -39 -100 -65 -157 -65 -76 0 -89 7 -57 32 42 33 115 57 178 58
l59 0 -23 -25z"/>
<path d="M2290 2361 c0 -8 -8 -10 -22 -6 -18 5 -20 4 -8 -4 13 -10 13 -12 0
-21 -11 -7 -1 -10 37 -10 28 0 60 -3 70 -6 10 -3 5 2 -12 12 -16 9 -38 23 -47
32 -13 10 -18 11 -18 3z"/>
<path d="M2440 2316 c0 -9 -8 -12 -22 -9 -21 4 -21 3 -5 -7 9 -6 15 -14 13
-18 -2 -4 18 -5 46 -3 27 1 48 4 46 5 -2 1 -20 12 -40 24 -29 16 -38 18 -38 8z"/>
<path d="M3354 2359 c-3 -6 -25 -20 -48 -31 -22 -11 -30 -17 -16 -13 14 3 46
8 71 11 30 4 46 11 46 21 0 7 -6 12 -14 9 -7 -3 -13 -1 -13 4 0 13 -17 13 -26
-1z"/>
<path d="M3180 2305 l-45 -24 48 -1 c30 0 54 6 63 15 14 13 13 15 -6 15 -12 0
-18 5 -15 10 8 13 8 13 -45 -15z"/>
<path d="M1997 2199 c-5 -18 -11 -21 -36 -16 -33 7 -40 -3 -16 -23 8 -7 15
-26 15 -42 0 -27 3 -30 25 -26 16 3 30 -1 41 -13 23 -26 36 -24 32 5 -1 13 5
33 15 44 17 19 17 20 -7 26 -14 3 -33 20 -41 36 -18 36 -21 36 -28 9z"/>
<path d="M3670 2202 c0 -8 -14 -27 -32 -43 -23 -23 -28 -33 -20 -41 7 -7 12
-22 12 -35 0 -27 12 -30 30 -8 9 11 22 14 43 9 28 -6 29 -5 23 23 -5 21 -2 34
9 43 22 19 18 32 -10 28 -15 -2 -30 4 -39 17 -10 13 -15 15 -16 7z"/>
<path d="M986 3156 c-62 -23 -109 -67 -143 -134 -39 -77 -49 -138 -36 -219 14
-82 48 -147 101 -194 56 -48 98 -62 178 -57 77 5 132 39 181 112 42 61 55 112
54 202 -2 169 -98 290 -238 300 -36 3 -73 -1 -97 -10z m49 -25 c-7 -22 -43
-47 -53 -37 -3 4 7 20 23 36 31 33 40 33 30 1z m-55 -6 c-23 -24 -50 -33 -50
-17 0 7 54 39 69 41 3 1 -6 -10 -19 -24z m80 -20 c0 -25 -4 -45 -10 -45 -11 0
-13 33 -4 68 10 34 14 27 14 -23z m90 -27 c0 -4 -7 -8 -15 -8 -12 0 -46 59
-45 79 1 9 60 -62 60 -71z m68 9 c47 -46 51 -57 22 -57 -11 0 -20 5 -20 11 0
6 -6 9 -14 6 -25 -10 -38 15 -18 36 16 19 16 19 -3 9 -18 -9 -24 -5 -43 24
l-22 33 28 -10 c15 -6 46 -29 70 -52z m-123 1 c4 -17 3 -28 -3 -28 -5 0 -12
16 -14 35 -5 39 7 34 17 -7z m-175 2 c0 -5 -10 -15 -22 -21 -23 -12 -23 -12
-4 10 21 23 26 26 26 11z m63 -82 c6 -40 3 -42 -43 -29 l-25 8 27 13 c22 10
25 16 17 26 -6 8 -8 22 -4 31 5 15 8 16 14 3 5 -8 11 -32 14 -52z m179 41 c17
-9 18 -13 7 -20 -21 -13 -29 -11 -23 6 5 11 2 13 -12 8 -12 -4 -15 -3 -10 5 9
15 12 15 38 1z m-286 -26 c-10 -10 -19 5 -10 18 6 11 8 11 12 0 2 -7 1 -15 -2
-18z m184 -18 c0 -40 -2 -45 -23 -45 -13 0 -26 3 -30 6 -7 8 32 84 44 84 5 0
9 -20 9 -45z m54 30 c3 -9 0 -15 -9 -15 -8 0 -15 -4 -15 -10 0 -5 -4 -10 -9
-10 -4 0 -6 11 -3 25 5 28 27 34 36 10z m-14 -60 c0 -8 -4 -15 -10 -15 -5 0
-7 7 -4 15 4 8 8 15 10 15 2 0 4 -7 4 -15z m-230 -46 c3 -24 9 -50 14 -57 6
-10 -1 -13 -30 -10 -38 3 -39 4 -36 37 9 87 43 107 52 30z m432 6 c3 -11 6
-32 7 -47 1 -26 -2 -28 -35 -28 -33 0 -36 2 -29 23 4 12 9 34 12 50 6 32 34
33 45 2z m-316 -1 c-3 -9 -6 -29 -6 -45 0 -22 -5 -29 -20 -29 -24 0 -26 20 -5
60 16 31 42 42 31 14z m72 -29 c0 -43 -1 -45 -28 -45 -35 0 -38 5 -33 53 5 33
8 37 33 37 27 0 28 -2 28 -45z m47 -16 c12 -19 -5 -23 -22 -6 -16 16 -16 17
-1 17 9 0 20 -5 23 -11z m-210 -51 c2 -7 5 -34 8 -60 4 -41 2 -47 -20 -57 -13
-6 -28 -11 -32 -11 -11 0 -31 70 -31 109 0 29 2 31 35 31 20 0 37 -6 40 -12z
m85 -8 c0 -16 -5 -19 -23 -15 -21 6 -22 3 -19 -34 4 -41 -10 -56 -22 -25 -10
26 -7 86 4 79 6 -3 10 -1 10 4 0 6 11 11 25 11 18 0 25 -5 25 -20z m60 1 c0
-11 5 -23 10 -26 6 -3 10 -15 10 -26 0 -14 -7 -19 -30 -19 -19 0 -30 5 -30 14
0 7 -3 28 -6 45 -6 28 -4 31 20 31 19 0 26 -5 26 -19z m94 4 c3 -8 1 -15 -4
-15 -6 0 -10 7 -10 15 0 8 2 15 4 15 2 0 6 -7 10 -15z m36 -13 c0 -14 2 -15
10 -2 13 20 20 9 23 -36 2 -34 -1 -39 -18 -36 -38 6 -40 10 -37 56 4 42 22 57
22 18z m136 17 c8 -13 -15 -119 -27 -119 -5 0 -9 5 -9 11 0 5 -10 9 -22 7 -21
-3 -23 1 -21 32 5 67 11 77 43 78 16 0 32 -4 36 -9z m-246 -184 c0 -52 -2 -95
-4 -95 -5 0 -41 109 -50 152 -5 20 -2 28 11 31 42 11 43 10 43 -88z m30 47 c1
-26 1 -26 15 -8 19 25 19 22 -1 -45 -25 -85 -34 -82 -34 10 0 52 4 80 10 76 6
-3 10 -18 10 -33z m94 32 c14 -5 12 -14 -14 -63 -34 -62 -87 -130 -75 -96 3
11 16 53 28 93 20 70 28 79 61 66z m-232 -30 c-3 -19 -7 -22 -13 -12 -13 20
-11 38 5 38 9 0 12 -8 8 -26z m286 -26 c21 4 13 -24 -15 -50 -73 -66 -118 -78
-75 -20 15 22 36 59 47 83 l20 43 6 -29 c3 -17 10 -29 17 -27z m-304 -10 c14
-29 33 -64 43 -77 l17 -24 -30 16 c-33 17 -104 90 -104 107 0 9 15 18 47 29 1
1 13 -23 27 -51z m82 -39 c25 -79 15 -86 -30 -21 -27 37 -28 43 -16 72 7 17
15 28 18 25 3 -3 16 -37 28 -76z"/>
<path d="M1240 2770 c0 -6 7 -10 15 -10 8 0 15 2 15 4 0 2 -7 6 -15 10 -8 3
-15 1 -15 -4z"/>
<path d="M4598 3177 c-137 -52 -243 -268 -218 -446 16 -116 88 -229 174 -273
61 -32 149 -30 208 5 210 123 242 484 59 650 -75 67 -152 90 -223 64z m168
-43 c26 -16 61 -46 78 -67 25 -31 28 -40 16 -47 -10 -6 -17 -4 -23 6 -5 9 -16
13 -27 9 -10 -3 -21 -1 -25 5 -4 6 -16 8 -28 4 -12 -4 -29 -8 -37 -9 -43 -4
-109 -30 -140 -54 -19 -15 -61 -39 -92 -54 -31 -14 -62 -36 -69 -48 -13 -25
-6 -106 12 -141 12 -22 12 -22 19 -3 4 11 5 24 2 29 -3 5 5 6 19 3 13 -4 39
-7 57 -7 30 0 35 -5 60 -57 15 -32 45 -76 67 -98 22 -23 48 -53 58 -68 11 -18
26 -27 43 -27 35 0 27 -21 -17 -42 -76 -39 -182 -14 -251 58 -162 170 -111
513 94 626 48 27 124 19 184 -18z m57 -143 c9 -7 26 -9 41 -5 22 5 27 2 37
-22 22 -60 30 -146 19 -218 -11 -75 -56 -180 -90 -211 -20 -18 -21 -18 -43 3
-13 12 -31 22 -40 22 -9 0 -17 3 -17 8 0 4 -25 32 -55 62 -77 76 -124 151 -73
116 29 -21 35 -20 43 4 4 13 15 20 31 20 53 0 41 60 -14 71 -42 9 -59 24 -73
66 -9 29 -9 38 4 50 40 40 195 63 230 34z m-251 -109 c6 -21 20 -40 41 -52
l32 -20 -75 0 c-47 0 -86 -6 -104 -15 -15 -8 -30 -15 -33 -15 -2 0 -3 21 -1
47 3 41 7 49 33 62 17 8 37 18 45 22 30 16 54 5 62 -29z m113 -82 c-3 -5 -14
-10 -24 -10 -10 0 -24 -7 -31 -15 -9 -11 -17 -12 -30 -5 -10 6 -40 10 -66 10
-77 0 -44 10 52 16 49 3 91 7 93 10 8 8 12 4 6 -6z"/>
<path d="M4650 2925 c-25 -13 -39 -24 -32 -25 6 0 12 -6 12 -14 0 -8 5 -18 10
-21 16 -10 40 14 40 40 0 13 6 25 13 28 6 2 10 7 7 10 -3 3 -25 -6 -50 -18z"/>
<path d="M4540 2900 c0 -5 5 -10 10 -10 6 0 10 5 10 10 0 6 -4 10 -10 10 -5 0
-10 -4 -10 -10z"/>
</g>
</svg>
