<?xml version="1.0" standalone="no"?>
<!DOCTYPE svg PUBLIC "-//W3C//DTD SVG 20010904//EN"
 "http://www.w3.org/TR/2001/REC-SVG-20010904/DTD/svg10.dtd">
<svg version="1.0" xmlns="http://www.w3.org/2000/svg"
 width="360.000000pt" height="360.000000pt" viewBox="0 0 360.000000 360.000000"
 preserveAspectRatio="xMidYMid meet">

<g transform="translate(0.000000,360.000000) scale(0.100000,-0.100000)"
fill="#000000" stroke="none">
<path d="M1423 1963 c31 -2 83 -2 115 0 31 2 5 3 -58 3 -63 0 -89 -1 -57 -3z"/>
<path d="M1823 1943 c9 -2 25 -2 35 0 9 3 1 5 -18 5 -19 0 -27 -2 -17 -5z"/>
<path d="M1230 1920 c-30 -4 96 -5 280 -2 184 2 337 6 339 8 7 7 -560 1 -619
-6z"/>
<path d="M1892 1925 c3 -3 133 -15 289 -25 379 -26 396 -28 419 -35 11 -3 20
-2 20 3 0 13 -66 25 -92 16 -14 -4 -18 -2 -14 5 5 7 -11 11 -51 12 -32 1 -71
3 -88 4 -221 23 -498 34 -483 20z"/>
<path d="M2638 1863 c7 -3 16 -2 19 1 4 3 -2 6 -13 5 -11 0 -14 -3 -6 -6z"/>
<path d="M1525 1843 c-33 -2 -123 -10 -200 -18 -176 -19 -318 -31 -565 -50
-216 -16 -520 -55 -520 -67 0 -4 6 -6 13 -4 35 11 77 14 77 6 0 -5 -16 -12
-35 -16 -19 -3 -37 -10 -40 -14 -2 -4 29 -1 69 6 71 12 234 18 224 8 -3 -2
-56 -11 -119 -20 -62 -8 -118 -19 -123 -24 -6 -6 5 -7 27 -3 24 4 37 2 37 -6
0 -6 -11 -11 -25 -11 -33 0 -95 -26 -95 -39 0 -6 9 -11 21 -11 18 0 15 -5 -17
-35 -20 -19 -41 -35 -45 -35 -16 0 -9 -32 8 -46 17 -13 17 -13 1 -14 -25 0
-23 -17 3 -25 11 -4 18 -13 15 -20 -5 -15 35 -25 101 -25 24 0 42 -4 39 -9 -3
-4 -27 -6 -54 -3 -53 5 -80 -12 -34 -21 27 -5 42 -37 18 -37 -6 0 -6 -4 1 -11
6 -6 37 -11 69 -11 33 0 65 -5 73 -12 11 -8 15 -8 18 2 5 14 33 16 33 2 0 -5
19 -10 43 -11 32 0 37 -2 22 -9 -11 -5 -15 -9 -10 -11 72 -14 362 -22 369 -10
5 7 85 10 244 10 226 -1 234 -2 167 -15 -38 -7 -85 -13 -104 -13 -19 -1 -71
-11 -115 -23 -63 -18 -74 -24 -52 -26 16 -2 32 0 35 5 7 10 379 58 387 50 3
-2 -15 -7 -38 -10 -159 -23 -278 -43 -283 -49 -7 -7 11 -6 215 12 134 12 163
17 156 29 -3 4 6 6 19 3 14 -2 25 -9 25 -16 0 -6 5 -4 10 4 8 13 45 15 232 15
123 0 210 2 193 6 l-30 6 39 8 c38 8 135 2 231 -14 61 -10 42 -13 -95 -13 -78
0 -97 -3 -75 -9 17 -5 57 -9 90 -8 33 1 87 -4 120 -10 80 -15 255 -28 261 -20
4 7 -56 19 -98 19 -16 0 -28 4 -28 10 0 5 8 7 18 4 14 -5 15 -4 2 5 -8 6 -41
11 -72 11 -31 0 -59 4 -62 9 -10 15 36 21 84 10 53 -12 300 -17 300 -7 0 5 -9
8 -19 8 -11 0 -23 5 -26 10 -4 7 7 9 32 5 21 -2 84 -9 140 -15 96 -10 132 -18
178 -36 19 -7 19 -7 3 9 -11 11 -57 23 -135 36 -65 10 -107 20 -93 22 14 1 32
1 40 0 8 -1 44 -4 80 -6 36 -3 78 -8 94 -11 19 -4 26 -3 22 5 -4 6 -19 11 -34
12 -24 0 -25 1 -7 9 16 7 17 9 3 9 -9 1 -19 -3 -22 -7 -6 -10 -74 -3 -81 8 -3
4 10 8 28 8 17 -1 46 5 62 12 l30 12 -28 10 c-28 10 -32 28 -9 36 7 2 12 -3
12 -12 0 -17 11 -19 50 -6 23 7 22 8 -10 10 -31 1 -33 2 -12 10 12 5 22 14 22
20 0 5 11 10 24 10 14 0 28 5 31 10 5 8 11 7 21 -1 12 -10 21 -8 44 9 31 23
60 29 60 12 0 -5 -6 -10 -12 -10 -9 0 -9 -3 1 -9 11 -7 10 -10 -5 -14 -15 -4
-16 -5 -2 -6 18 -1 62 52 51 63 -3 3 11 7 33 8 54 2 90 6 149 15 l50 8 -45 5
c-25 3 -61 2 -79 -2 -19 -4 -42 -3 -50 2 -16 9 -11 10 124 29 61 8 54 9 -52 4
-87 -4 -123 -2 -123 6 0 6 19 11 45 11 25 0 45 5 45 10 0 6 -9 10 -20 10 -11
0 -20 5 -20 10 0 6 5 10 10 10 6 0 10 5 10 11 0 7 -14 8 -41 4 -29 -5 -40 -4
-35 4 4 7 -1 11 -13 11 -27 0 -51 10 -51 22 0 7 18 8 50 4 34 -5 50 -3 50 4 0
8 -31 11 -100 8 -66 -2 -100 -7 -100 -14 0 -7 -10 -14 -22 -18 -33 -8 -40 -7
-33 4 3 6 16 10 28 11 21 0 21 1 2 8 -11 5 -27 6 -35 3 -8 -2 -6 2 5 10 11 8
40 13 65 13 68 -3 82 9 20 16 -47 6 -42 7 35 7 112 0 128 2 90 12 -16 4 -75 9
-130 10 -55 1 -127 6 -160 10 l-60 7 50 3 c28 2 58 4 68 3 9 0 17 4 17 8 0 3
-29 10 -65 14 -36 3 -67 11 -70 16 -7 11 -36 12 -32 2 1 -5 -3 -8 -8 -8 -5 0
-9 3 -8 7 4 12 -51 5 -59 -7 -6 -7 -10 -6 -15 2 -9 13 -152 15 -169 1 -8 -5
-14 -3 -18 7 -3 9 -11 13 -16 10 -9 -6 -331 -6 -435 -1 -16 1 -36 -3 -42 -8
-8 -5 -13 -5 -13 1 0 5 -70 10 -162 11 -90 1 -172 4 -183 6 -11 3 -69 6 -130
7 -90 2 -72 4 95 10 113 4 241 10 285 13 44 2 133 5 198 6 89 2 116 5 108 13
-12 12 -604 19 -746 10z m-1005 -113 c11 -7 5 -10 -25 -11 -22 0 -65 -2 -95
-4 -65 -5 -57 1 20 14 75 12 83 12 100 1z m2205 0 c3 -5 1 -10 -4 -10 -6 0
-11 5 -11 10 0 6 2 10 4 10 3 0 8 -4 11 -10z m65 -10 c0 -5 -2 -10 -4 -10 -3
0 -8 5 -11 10 -3 6 -1 10 4 10 6 0 11 -4 11 -10z m75 0 c3 -5 -3 -10 -14 -10
-12 0 -21 5 -21 10 0 6 6 10 14 10 8 0 18 -4 21 -10z m143 -52 c-2 -5 -7 -9
-11 -9 -4 1 -14 1 -22 1 -8 0 -15 4 -15 9 0 5 11 9 25 9 14 0 24 -5 23 -10z
m150 -60 c-5 -15 -48 -24 -48 -10 0 14 12 22 33 22 10 0 17 -5 15 -12z m-33
-58 c4 -6 -11 -10 -37 -9 -36 1 -39 2 -18 9 36 11 48 11 55 0z m12 -56 c-3 -3
-12 -4 -19 -1 -8 3 -5 6 6 6 11 1 17 -2 13 -5z m93 -24 c0 -5 -12 -10 -27 -10
-22 0 -25 2 -13 10 20 13 40 13 40 0z m-1913 -186 c-3 -3 -12 -4 -19 -1 -8 3
-5 6 6 6 11 1 17 -2 13 -5z m213 -1 c49 -6 52 -8 25 -14 -33 -7 -161 -9 -132
-2 9 2 17 9 17 14 0 11 17 11 90 2z m448 -40 c-10 -2 -26 -2 -35 0 -10 3 -2 5
17 5 19 0 27 -2 18 -5z m449 1 c-3 -3 -12 -4 -19 -1 -8 3 -5 6 6 6 11 1 17 -2
13 -5z m201 -1 c-10 -2 -28 -2 -40 0 -13 2 -5 4 17 4 22 1 32 -1 23 -4z
m-1081 -9 c-3 -3 -12 -4 -19 -1 -8 3 -5 6 6 6 11 1 17 -2 13 -5z m806 -41
c-13 -2 -35 -2 -50 0 -16 2 -5 4 22 4 28 0 40 -2 28 -4z m42 -3 c3 -5 1 -10
-4 -10 -6 0 -11 5 -11 10 0 6 2 10 4 10 3 0 8 -4 11 -10z"/>
<path d="M2363 1833 c9 -2 23 -2 30 0 6 3 -1 5 -18 5 -16 0 -22 -2 -12 -5z"/>
<path d="M2150 1802 c14 -4 86 -4 160 -1 l135 5 -160 1 c-88 1 -149 -2 -135
-5z"/>
<path d="M3036 1735 c4 -8 12 -15 20 -15 19 0 18 16 -2 24 -22 9 -24 8 -18 -9z"/>
<path d="M145 1650 c-13 -5 -14 -9 -5 -9 8 0 24 4 35 9 13 5 14 9 5 9 -8 0
-24 -4 -35 -9z"/>
<path d="M3325 1580 c3 -5 10 -10 16 -10 5 0 9 5 9 10 0 6 -7 10 -16 10 -8 0
-12 -4 -9 -10z"/>
<path d="M3428 1583 c12 -2 30 -2 40 0 9 3 -1 5 -23 4 -22 0 -30 -2 -17 -4z"/>
<path d="M3468 1553 c6 -2 18 -2 25 0 6 3 1 5 -13 5 -14 0 -19 -2 -12 -5z"/>
<path d="M3345 1540 c3 -5 12 -7 20 -3 21 7 19 13 -6 13 -11 0 -18 -4 -14 -10z"/>
<path d="M3388 1443 c7 -3 16 -2 19 1 4 3 -2 6 -13 5 -11 0 -14 -3 -6 -6z"/>
<path d="M3235 1410 c-3 -5 -1 -10 4 -10 6 0 11 5 11 10 0 6 -2 10 -4 10 -3 0
-8 -4 -11 -10z"/>
<path d="M3120 1380 c0 -5 7 -7 15 -4 8 4 15 8 15 10 0 2 -7 4 -15 4 -8 0 -15
-4 -15 -10z"/>
<path d="M3005 1321 c-3 -5 -1 -12 5 -16 5 -3 10 1 10 9 0 18 -6 21 -15 7z"/>
<path d="M1038 1233 c6 -2 18 -2 25 0 6 3 1 5 -13 5 -14 0 -19 -2 -12 -5z"/>
<path d="M705 1210 c-42 -4 -56 -7 -35 -9 19 -1 42 -4 50 -6 9 -1 29 3 45 10
17 8 26 13 20 12 -5 0 -41 -3 -80 -7z"/>
<path d="M863 1203 c9 -2 25 -2 35 0 9 3 1 5 -18 5 -19 0 -27 -2 -17 -5z"/>
<path d="M1693 1203 c9 -2 23 -2 30 0 6 3 -1 5 -18 5 -16 0 -22 -2 -12 -5z"/>
<path d="M2495 1202 c36 -16 91 -24 78 -11 -6 6 -30 13 -54 15 -31 3 -38 2
-24 -4z"/>
<path d="M2586 1199 c3 -5 17 -9 31 -9 32 0 24 11 -11 14 -14 2 -23 -1 -20 -5z"/>
<path d="M2018 1193 c7 -3 16 -2 19 1 4 3 -2 6 -13 5 -11 0 -14 -3 -6 -6z"/>
<path d="M650 1180 c-11 -7 -3 -10 30 -10 33 0 41 3 30 10 -8 5 -22 10 -30 10
-8 0 -22 -5 -30 -10z"/>
<path d="M3070 1174 c56 -17 62 -17 30 1 -14 8 -36 14 -50 14 -18 0 -12 -4 20
-15z"/>
<path d="M1125 1170 c-3 -5 1 -10 10 -10 9 0 13 5 10 10 -3 6 -8 10 -10 10 -2
0 -7 -4 -10 -10z"/>
<path d="M550 1160 l-25 -8 25 0 c14 0 39 4 55 8 l30 8 -30 0 c-16 0 -41 -4
-55 -8z"/>
<path d="M918 1138 c-8 -4 4 -8 30 -8 23 0 42 2 42 4 0 8 -60 12 -72 4z"/>
</g>
</svg>
